<svg width="28" height="28" viewBox="0 0 28 28" fill="none" xmlns="http://www.w3.org/2000/svg">
<path d="M14 0C6.26874 0 0 6.26874 0 14C0 21.7313 6.26874 28 14 28C21.7313 28 28 21.7313 28 14C28 6.26874 21.7327 0 14 0ZM20.4126 15.3187C20.3328 15.5166 20.1676 15.6676 19.9626 15.7302L14.9926 17.2625V23.312C14.9926 23.705 14.6736 24.024 14.2805 24.024C13.8875 24.024 13.5685 23.705 13.5685 23.312V17.7026L9.48856 18.96C9.23222 19.0383 8.95311 18.9671 8.76655 18.7749C8.58 18.5826 8.51734 18.3007 8.60564 18.0472L10.3615 12.9676C10.4897 12.5959 10.8955 12.3979 11.2672 12.5275C11.6389 12.6557 11.8354 13.0615 11.7073 13.4332L10.4099 17.1856L13.5671 16.2116V5.00132C13.5671 4.67521 13.7878 4.39182 14.104 4.31065C14.4201 4.22948 14.7491 4.37473 14.9043 4.66097L20.3755 14.7106C20.4781 14.8986 20.4909 15.1222 20.4097 15.3201L20.4126 15.3187Z" fill="#183E66"/>
</svg>
