<svg width="32" height="32" viewBox="0 0 32 32" fill="none" xmlns="http://www.w3.org/2000/svg">
<rect x="1" y="5.71436" width="30" height="20.5714" rx="2.57143" fill="#016FD0"/>
<path fill-rule="evenodd" clip-rule="evenodd" d="M30.9994 23.8928V27.5713H26.3507L24.6326 25.5516L22.8472 27.5713H9.64201V16.818H5.28516L10.7312 4.42847H16.0312L17.3113 7.2381V4.42847H23.8915L24.9919 7.37352L26.0699 4.42847H30.9994V6.17743H27.1928L25.4636 10.7586L25.0032 11.9998L22.7911 6.17743H18.9845V15.2044L15.0319 6.17743H11.9664L7.99135 15.2044H10.5965L11.2927 13.4667H15.6495L16.3457 15.2044H18.9845H21.2752V9.32559L21.264 8.14079L21.7132 9.32559L23.9028 15.2044H26.0812L28.2821 9.32559L28.7087 8.15209V15.2044H30.9994V18.7362L28.4617 21.2976L30.9994 23.8928ZM11.4835 25.8224V16.8292H18.9845V18.7813H13.7742V20.361H18.8834V22.3019H13.7742V23.8702H18.9845V25.8224H11.4835ZM30.3033 25.8224H27.3276L24.6102 22.8886L21.8816 25.8224H18.9845L23.1729 21.3427L18.9845 16.8292H21.9714L24.6663 19.7517L27.3725 16.8292H30.3033L26.1036 21.3088L30.3033 25.8224Z" fill="white"/>
<path d="M13.471 8.10694L13.022 9.23535L12.0899 11.5146H14.8522L13.9202 9.23535L13.471 8.10694Z" fill="white"/>
</svg>
