<svg width="32" height="32" viewBox="0 0 32 32" fill="none" xmlns="http://www.w3.org/2000/svg">
<rect x="1.5" y="6.5" width="29" height="19" rx="3.5" fill="white" stroke="#E4E4E7"/>
<path fill-rule="evenodd" clip-rule="evenodd" d="M8.1543 13.4441C8.5572 13.4771 8.96009 13.2458 9.2119 12.9526C9.45951 12.651 9.62318 12.2463 9.58121 11.8333C9.22449 11.8498 8.78382 12.0645 8.53202 12.3661C8.30119 12.6263 8.10394 13.0475 8.1543 13.4441ZM12.9471 18.7638V12.3248H15.4022C16.6696 12.3248 17.5551 13.1839 17.5551 14.4394C17.5551 15.695 16.6528 16.5624 15.3686 16.5624H13.9627V18.7638H12.9471ZM9.57699 13.5225C9.22205 13.5024 8.89818 13.6276 8.63659 13.7287C8.46824 13.7937 8.32569 13.8488 8.21723 13.8488C8.09552 13.8488 7.94708 13.7908 7.78041 13.7256C7.56203 13.6402 7.31235 13.5426 7.05052 13.5473C6.45038 13.5556 5.89221 13.8901 5.58584 14.4229C4.95632 15.4885 5.42217 17.0663 6.0307 17.9336C6.32867 18.3632 6.6854 18.834 7.15544 18.8175C7.36223 18.8098 7.51098 18.7477 7.66493 18.6834C7.84216 18.6094 8.02628 18.5325 8.31376 18.5325C8.59127 18.5325 8.76733 18.6074 8.93634 18.6793C9.09704 18.7476 9.25137 18.8133 9.48047 18.8092C9.96729 18.801 10.2737 18.3797 10.5716 17.9502C10.8932 17.4891 11.0345 17.0392 11.0559 16.9709L11.0585 16.963C11.0579 16.9625 11.054 16.9607 11.047 16.9576L11.047 16.9576L11.047 16.9576C10.9395 16.9091 10.1179 16.539 10.11 15.5464C10.1021 14.7132 10.7617 14.2911 10.8655 14.2246L10.8655 14.2246L10.8655 14.2246L10.8655 14.2246C10.8718 14.2205 10.8761 14.2178 10.878 14.2164C10.4583 13.6051 9.80362 13.5391 9.57699 13.5225ZM19.4102 18.8133C20.0481 18.8133 20.6398 18.4953 20.9084 17.9914H20.9294V18.7638H21.8695V15.5587C21.8695 14.6294 21.1141 14.0305 19.9515 14.0305C18.873 14.0305 18.0756 14.6377 18.0462 15.472H18.9611C19.0366 15.0755 19.4102 14.8153 19.9222 14.8153C20.5433 14.8153 20.8916 15.1003 20.8916 15.6248V15.98L19.6242 16.0543C18.4449 16.1246 17.807 16.5995 17.807 17.4256C17.807 18.2599 18.4659 18.8133 19.4102 18.8133ZM19.6829 18.0493C19.1415 18.0493 18.7974 17.7932 18.7974 17.4008C18.7974 16.9961 19.1289 16.7606 19.7626 16.7235L20.8916 16.6533V17.0167C20.8916 17.6197 20.3712 18.0493 19.6829 18.0493ZM24.9877 19.0157C24.5806 20.1433 24.1147 20.515 23.1243 20.515C23.0487 20.515 22.7969 20.5068 22.7382 20.4902V19.7179C22.8011 19.7261 22.9564 19.7344 23.0362 19.7344C23.4852 19.7344 23.737 19.5485 23.8923 19.0653L23.9846 18.7803L22.264 14.0925H23.3257L24.5218 17.8964H24.5428L25.7389 14.0925H26.7713L24.9877 19.0157ZM13.9626 13.1673H15.1335C16.0148 13.1673 16.5184 13.6299 16.5184 14.4436C16.5184 15.2572 16.0148 15.7239 15.1293 15.7239H13.9626V13.1673Z" fill="black"/>
</svg>
