<svg width="32" height="32" viewBox="0 0 32 32" fill="none" xmlns="http://www.w3.org/2000/svg">
<rect width="32" height="32" rx="16" fill="#F7931A"/>
<path d="M20.77 17.0545C20.2572 15.9575 18.989 15.5242 18.989 15.5242C18.989 15.5242 20.5871 14.7123 20.2364 13.1189C20.0105 12.0794 19.0583 11.0345 17.2856 11.0084V9.5H15.7069V11.0084H14.5579V9.5H12.9806V11.0084H11V12.4319H11.9148C11.9639 12.4319 12.0126 12.4414 12.058 12.46C12.1034 12.4786 12.1446 12.5059 12.1794 12.5403C12.2141 12.5747 12.2417 12.6155 12.2605 12.6604C12.2793 12.7053 12.289 12.7535 12.289 12.8021V18.9456C12.289 19.0547 12.2452 19.1593 12.1672 19.2365C12.0892 19.3136 11.9835 19.357 11.8732 19.357H11.3285L11 20.8887H12.9806V22.5H14.5579V20.8887H15.7069V22.5H17.2842V20.8887H17.5891C20.6425 20.8887 21.463 18.5643 20.77 17.0545ZM16.1643 12.4319C16.9668 12.4319 17.7111 12.9434 17.7319 13.7277C17.7527 14.5121 17.0957 15.1896 16.2239 15.2005C15.4214 15.2101 14.5607 15.2005 14.5607 15.2005V12.4319C14.5607 12.4319 15.323 12.4319 16.1643 12.4319ZM16.6355 19.3528C15.8039 19.3679 14.5565 19.3528 14.5565 19.3528V16.4731C14.5565 16.4731 15.7083 16.4896 16.5676 16.4731C17.6016 16.4566 18.3625 16.9339 18.3694 17.8348C18.3764 18.7358 17.7568 19.335 16.6355 19.3556V19.3528Z" fill="#FEEDD9"/>
</svg>
