<svg width="32" height="32" viewBox="0 0 32 32" fill="none" xmlns="http://www.w3.org/2000/svg">
<rect x="1.5" y="2" width="29" height="28" rx="14" fill="#0AC18E"/>
<path d="M21.6008 18.4453C21.4985 17.2878 20.2855 16.5139 20.2855 16.5139C20.2855 16.5139 21.8317 16.1048 21.991 14.3173C22.0918 13.177 21.3552 11.9868 19.5065 11.4566L20.1437 9.10895L18.6268 8.71697L17.991 11.0589L16.7328 10.7339L17.3685 8.39198L15.8486 8L15.2129 10.3419L12.7694 9.71047L12.3675 11.1886L13.8552 11.572L11.9145 18.7232L10.4267 18.3369L10 19.9049L12.4435 20.5363L11.8078 22.8825L13.3335 23.283L13.9707 20.9368L15.229 21.2618L14.5859 23.6109L16.1102 24L16.7474 21.6538L17.0996 21.7436C20.0692 22.4706 21.7761 20.4408 21.6008 18.4453ZM16.3703 12.222C16.3703 12.222 16.987 12.3774 17.8727 12.6097C18.713 12.8306 19.3531 13.5547 19.1558 14.3715C18.9585 15.1882 18.0831 15.7085 17.1639 15.4861C16.3206 15.2809 15.5943 15.0813 15.5943 15.0813L16.3703 12.222ZM16.439 19.892C15.5622 19.6839 14.4296 19.3732 14.4296 19.3732L15.2333 16.4041C15.2333 16.4041 16.2563 16.6892 17.1668 16.903C18.2556 17.1653 18.9205 17.8623 18.6808 18.7959C18.4412 19.7295 17.6213 20.1728 16.439 19.892Z" fill="white"/>
</svg>
