<svg width="32" height="32" viewBox="0 0 32 32" fill="none" xmlns="http://www.w3.org/2000/svg">
<path d="M0.800781 16.0569C0.800781 7.63055 7.63152 0.799805 16.0579 0.799805C24.4843 0.799805 31.3151 7.63055 31.3151 16.0569C31.3151 24.4833 24.4843 31.3141 16.0579 31.3141C7.63152 31.3141 0.800781 24.4833 0.800781 16.0569Z" fill="#7B1AF7"/>
<path d="M18.9686 5.33301C18.059 7.69423 17.1494 10.2371 16.0578 12.7799C16.0578 12.7799 16.0578 13.1432 16.4216 13.1432H23.8807C23.8807 13.1432 23.8807 13.3248 24.0626 13.5065L13.147 25.6759C12.965 25.4942 12.965 25.3126 12.965 25.131L16.7855 16.9575V16.231H9.14453V15.5044L18.4229 5.33301H18.9686Z" fill="white"/>
</svg>
