<svg width="18" height="39" viewBox="0 0 18 39" fill="none" xmlns="http://www.w3.org/2000/svg">
<path d="M16.8403 35.4855C17.2119 35.3026 17.3648 34.853 17.1818 34.4814L14.2 28.4257C14.017 28.0541 13.5674 27.9012 13.1958 28.0842C12.8242 28.2672 12.6713 28.7167 12.8543 29.0883L15.5048 34.4711L10.122 37.1217C9.7504 37.3047 9.59749 37.7542 9.78047 38.1259C9.96345 38.4975 10.413 38.6504 10.7846 38.4674L16.8403 35.4855ZM5.74092 0.413574L5.11533 -0.000112027C4.83721 0.420466 4.55942 0.865483 4.28516 1.33239L4.93185 1.71226L5.57853 2.09212C5.83963 1.64762 6.10338 1.22518 6.36651 0.82726L5.74092 0.413574ZM3.5067 4.43314L2.82657 4.11703C2.398 5.03909 1.99613 6.01333 1.63738 7.02726L2.34443 7.27743L3.05147 7.5276C3.3936 6.56065 3.77728 5.63039 4.18682 4.74926L3.5067 4.43314ZM1.46771 10.2191L0.738741 10.0427C0.493614 11.056 0.300117 12.095 0.172381 13.1493L0.916936 13.2395L1.66149 13.3297C1.78166 12.3379 1.96418 11.3565 2.19668 10.3955L1.46771 10.2191ZM0.749997 16.3038L8.35061e-05 16.3152C0.0161369 17.3707 0.109231 18.4317 0.293186 19.4877L1.03206 19.359L1.77093 19.2303C1.60145 18.2574 1.51486 17.2751 1.49991 16.2924L0.749997 16.3038ZM1.81768 22.3225L1.1127 22.5785C1.47044 23.5638 1.92222 24.5336 2.47917 25.4787L3.12532 25.0979L3.77147 24.7172C3.26252 23.8535 2.84974 22.9675 2.52265 22.0666L1.81768 22.3225ZM4.91316 27.5894L4.3444 28.0783C5.01087 28.8537 5.76363 29.6019 6.60917 30.3176L7.0937 29.7451L7.57823 29.1726C6.79135 28.5066 6.09521 27.814 5.48193 27.1005L4.91316 27.5894ZM9.57101 31.5633L9.16753 32.1955C10.0128 32.7349 10.9253 33.2484 11.9087 33.7329L12.2402 33.0601L12.5716 32.3873C11.635 31.9259 10.7708 31.4393 9.9745 30.9311L9.57101 31.5633ZM15.0534 34.286L14.7842 34.986C15.2647 35.1708 15.759 35.3498 16.2675 35.5227L16.509 34.8127L16.7505 34.1026C16.2602 33.9359 15.7843 33.7635 15.3226 33.586L15.0534 34.286Z" fill="#007BFF"/>
</svg>
