<svg width="32" height="32" viewBox="0 0 32 32" fill="none" xmlns="http://www.w3.org/2000/svg">
<rect width="32" height="32" rx="6" fill="#F2F5F9"/>
<path d="M24.3826 18.0756C23.2281 22.7003 18.538 25.5149 13.9068 24.3616C9.27752 23.2086 6.45938 18.5242 7.61434 13.8998C8.76828 9.27459 13.4584 6.45985 18.0882 7.61281C22.7191 8.76578 25.537 13.4507 24.3825 18.0757L24.3826 18.0756H24.3826Z" fill="#282E38"/>
<path d="M19.811 14.7556C19.9831 13.6068 19.1073 12.9893 17.9098 12.5773L18.2983 11.0211L17.3497 10.7851L16.9716 12.3003C16.7222 12.2382 16.4661 12.1796 16.2116 12.1216L16.5925 10.5964L15.6446 10.3604L15.2559 11.916C15.0495 11.8691 14.8469 11.8227 14.6502 11.7739L14.6513 11.769L13.3433 11.4428L13.091 12.4545C13.091 12.4545 13.7947 12.6157 13.7799 12.6256C14.164 12.7213 14.2334 12.9753 14.2219 13.1765L13.7794 14.9494C13.8058 14.9561 13.8401 14.9658 13.878 14.981C13.8463 14.9732 13.8127 14.9646 13.7777 14.9562L13.1574 17.4398C13.1105 17.5563 12.9914 17.7312 12.7228 17.6648C12.7323 17.6786 12.0334 17.493 12.0334 17.493L11.5625 18.5773L12.7968 18.8847C13.0265 18.9422 13.2515 19.0023 13.4731 19.0589L13.0806 20.633L14.028 20.869L14.4167 19.3117C14.6755 19.3819 14.9267 19.4466 15.1726 19.5076L14.7852 21.0576L15.7338 21.2936L16.1263 19.7226C17.7437 20.0283 18.9599 19.905 19.4718 18.4439C19.8842 17.2676 19.4512 16.5891 18.6003 16.1466C19.2201 16.0038 19.6869 15.5967 19.8114 14.7558L19.8111 14.7556L19.811 14.7556ZM17.6439 17.7906C17.3507 18.967 15.3676 18.3311 14.7246 18.1716L15.2455 16.0863C15.8884 16.2466 17.9502 16.5638 17.6439 17.7906H17.6439ZM17.9372 14.7386C17.6698 15.8086 16.0192 15.265 15.4838 15.1317L15.956 13.2404C16.4915 13.3737 18.2158 13.6225 17.9373 14.7386H17.9372Z" fill="white"/>
</svg>
