<svg width="32" height="32" viewBox="0 0 32 32" fill="none" xmlns="http://www.w3.org/2000/svg">
<rect width="32" height="32" rx="6" fill="#F2F5F9"/>
<path d="M16 12V25M16 12C15.6383 10.5094 15.0154 9.23501 14.2127 8.34311C13.41 7.45121 12.4647 6.98314 11.5 6.99995C10.837 6.99995 10.2011 7.26334 9.73223 7.73218C9.26339 8.20102 9 8.83691 9 9.49995C9 10.163 9.26339 10.7989 9.73223 11.2677C10.2011 11.7366 10.837 11.9999 11.5 11.9999M16 12C16.3617 10.5094 16.9846 9.23501 17.7873 8.34311C18.59 7.45121 19.5353 6.98314 20.5 6.99995C21.163 6.99995 21.7989 7.26334 22.2678 7.73218C22.7366 8.20102 23 8.83691 23 9.49995C23 10.163 22.7366 10.7989 22.2678 11.2677C21.7989 11.7366 21.163 11.9999 20.5 11.9999M23 16V23C23 23.5304 22.7893 24.0391 22.4142 24.4142C22.0391 24.7893 21.5304 25 21 25H11C10.4696 25 9.96086 24.7893 9.58579 24.4142C9.21071 24.0391 9 23.5304 9 23V16M8 12H24C24.5523 12 25 12.4477 25 13V15C25 15.5523 24.5523 16 24 16H8C7.44772 16 7 15.5523 7 15V13C7 12.4477 7.44772 12 8 12Z" stroke="#282E38" stroke-width="1.33" stroke-linecap="round" stroke-linejoin="round"/>
</svg>
