<svg width="32" height="32" viewBox="0 0 32 32" fill="none" xmlns="http://www.w3.org/2000/svg">
<rect x="1.5" y="6.5" width="29" height="19" rx="3.5" fill="white" stroke="#E4E4E7"/>
<path d="M24.5693 17.9321H24.585L25.8359 14.8794H26.7148L24.0117 21.0005H23.1777L24.1826 18.8589L22.4092 14.8794H23.2881L24.5693 17.9321ZM20.3389 14.7407C20.9366 14.7407 21.4092 14.8994 21.7559 15.2114C22.1025 15.5236 22.2734 15.9602 22.2734 16.5103V19.1313H21.5V18.5425H21.4648C21.1282 19.028 20.6856 19.271 20.1279 19.271C19.6558 19.271 19.254 19.1315 18.9375 18.854C18.6262 18.5964 18.45 18.2152 18.46 17.814C18.46 17.3729 18.6312 17.0258 18.9678 16.7632C19.3044 16.5006 19.7566 16.3716 20.3193 16.3716C20.8015 16.3716 21.1934 16.4609 21.5049 16.6294V16.4458C21.5049 16.1733 21.3839 15.9152 21.1729 15.7368C20.9569 15.5487 20.6807 15.4448 20.3945 15.4448C19.9425 15.4448 19.5855 15.6328 19.3242 16.0093L18.6113 15.5688C18.9931 15.0189 19.5704 14.7408 20.3389 14.7407ZM16.5059 12.9175C17.0233 12.9076 17.5259 13.1008 17.8926 13.4575C18.6261 14.1315 18.6707 15.2662 17.9824 15.9946L17.8926 16.0845C17.5158 16.4363 17.0534 16.6147 16.5059 16.6147H15.1689V19.1323H14.3604V12.9175H16.5059ZM20.4453 17.0161C20.1188 17.0161 19.8422 17.095 19.6211 17.2485C19.405 17.4022 19.2939 17.5957 19.2939 17.8286C19.294 18.0367 19.3948 18.2302 19.5605 18.3491C19.7414 18.4878 19.9625 18.562 20.1885 18.5571C20.5302 18.5571 20.8574 18.4229 21.0986 18.1851C21.3647 17.9373 21.5 17.6449 21.5 17.3081C21.2488 17.11 20.8973 17.0112 20.4453 17.0161ZM15.1689 15.8511H16.5264C16.8278 15.8609 17.1192 15.7418 17.3252 15.5288C17.7471 15.0977 17.7369 14.404 17.2998 13.9878C17.0939 13.7897 16.8177 13.6802 16.5264 13.6802H15.1689V15.8511Z" fill="#3C4043"/>
<path d="M12.376 16.0692C12.376 15.8264 12.3559 15.5836 12.3157 15.3457H8.9043V16.7184H10.8587C10.7783 17.1595 10.5171 17.5559 10.1352 17.8037V18.6957H11.3008C11.9841 18.0763 12.376 17.1595 12.376 16.0692Z" fill="#4285F4"/>
<path d="M8.90536 19.558C9.88005 19.558 10.704 19.2408 11.3019 18.6957L10.1363 17.8037C9.80972 18.0218 9.39271 18.1457 8.90536 18.1457C7.96081 18.1457 7.16197 17.5163 6.87559 16.6738H5.6748V17.5956C6.28776 18.7998 7.53878 19.558 8.90536 19.558Z" fill="#34A853"/>
<path d="M6.87529 16.6737C6.72454 16.2327 6.72454 15.752 6.87529 15.306V14.3892H5.67431C5.15674 15.3952 5.15674 16.5845 5.67431 17.5905L6.87529 16.6737Z" fill="#FBBC04"/>
<path d="M8.90536 13.8342C9.42285 13.8243 9.92025 14.0176 10.292 14.3694L11.327 13.3486C10.6689 12.744 9.80469 12.4119 8.90536 12.4218C7.53878 12.4218 6.28776 13.185 5.6748 14.3892L6.87559 15.311C7.16197 14.4636 7.96081 13.8342 8.90536 13.8342Z" fill="#EA4335"/>
</svg>
