<svg width="32" height="32" viewBox="0 0 32 32" fill="none" xmlns="http://www.w3.org/2000/svg">
<rect width="32" height="32" rx="6" fill="#F2F5F9"/>
<path d="M7 16C7 13.6131 7.94821 11.3239 9.63604 9.63604C11.3239 7.94821 13.6131 7 16 7C18.516 7.00947 20.931 7.99122 22.74 9.74L25 12M25 12V7M25 12H20M25 16C25 18.3869 24.0518 20.6761 22.364 22.364C20.6761 24.0518 18.3869 25 16 25C13.484 24.9905 11.069 24.0088 9.26 22.26L7 20M7 20H12M7 20V25" stroke="#282E38" stroke-width="1.33" stroke-linecap="round" stroke-linejoin="round"/>
</svg>
