<svg width="1200" height="628" viewBox="0 0 1200 628" fill="none" xmlns="http://www.w3.org/2000/svg">
<path opacity="0.5" d="M202.625 -369.757L202.625 -370.007L202.375 -370.007L202.375 -369.757L202.625 -369.757ZM3.14959 626.115L2.97258 625.939C2.90117 626.01 2.87993 626.118 2.91875 626.211C2.95745 626.305 3.04851 626.365 3.14959 626.365L3.14959 626.115ZM400.221 227.925L400.471 227.925C400.471 227.823 400.41 227.732 400.316 227.693C400.223 227.655 400.115 227.676 400.044 227.748L400.221 227.925ZM400.221 626.115L400.221 626.365C400.359 626.365 400.471 626.254 400.471 626.115L400.221 626.115ZM403.685 427.825L403.685 427.575C403.584 427.575 403.493 427.636 403.454 427.73C403.415 427.823 403.437 427.93 403.508 428.002L403.685 427.825ZM603.16 627.863L602.983 628.04C603.03 628.087 603.094 628.113 603.16 628.113C603.227 628.113 603.29 628.087 603.337 628.04L603.16 627.863ZM802.635 427.825L802.812 428.002C802.859 427.955 802.885 427.892 802.885 427.825L802.635 427.825ZM902.688 -369.367L902.688 -369.617L902.438 -369.617L902.438 -369.367L902.688 -369.367ZM1200 627.863L1200 628.113L1200.25 628.113L1200.25 627.863L1200 627.863ZM1200 70.0001L1200.25 70.0001L1200.25 69.7501L1200 69.7501L1200 70.0001ZM1200 -369.367L1200 -369.117L1200.25 -369.117L1200.25 -369.367L1200 -369.367ZM601.575 -369.757L601.825 -369.757L601.825 -370.007L601.575 -370.007L601.575 -369.757ZM603.16 30.3189L602.91 30.3189L602.91 30.5689L603.16 30.5689L603.16 30.3189ZM1002.11 -369.756L1002.36 -369.756L1002.36 -370.006L1002.11 -370.006L1002.11 -369.756ZM603.16 -369.757L603.16 -370.007L602.91 -370.007L602.91 -369.757L603.16 -369.757ZM5.02889 225.092L4.77889 225.092C4.77889 225.194 4.83993 225.285 4.93343 225.323C5.02694 225.362 5.13448 225.341 5.20589 225.269L5.02889 225.092ZM5.02891 28.8344L5.02891 28.5844C4.89085 28.5844 4.77891 28.6963 4.77891 28.8344L5.02891 28.8344ZM200.745 28.8344L200.923 29.0109C200.994 28.9394 201.015 28.8318 200.976 28.7386C200.938 28.6452 200.847 28.5844 200.745 28.5844L200.745 28.8344ZM5.02891 26.0022L4.77891 26.0022C4.77891 26.1034 4.83995 26.1946 4.93345 26.2332C5.02696 26.2719 5.1345 26.2504 5.20603 26.1787L5.02891 26.0022ZM5.02893 -170.266L5.02893 -170.516C4.89087 -170.516 4.77893 -170.404 4.77893 -170.266L5.02893 -170.266ZM200.745 -170.266L200.923 -170.09C200.994 -170.161 201.015 -170.269 200.976 -170.362C200.938 -170.456 200.847 -170.516 200.745 -170.516L200.745 -170.266ZM5.02893 -174.036L4.77893 -174.036C4.77893 -173.934 4.83996 -173.843 4.93347 -173.805C5.02697 -173.766 5.13452 -173.787 5.20605 -173.859L5.02893 -174.036ZM5.02894 -370.304L5.02894 -370.554C4.89088 -370.554 4.77894 -370.442 4.77894 -370.304L5.02894 -370.304ZM200.745 -370.304L200.923 -370.128C200.994 -370.199 201.015 -370.306 200.976 -370.4C200.938 -370.493 200.847 -370.554 200.745 -370.554L200.745 -370.304ZM1200 -488L1200.25 -488C1200.25 -488.138 1200.14 -488.25 1200 -488.25L1200 -488ZM1087.48 -375.157L1087.3 -374.981C1087.37 -374.909 1087.48 -374.888 1087.57 -374.926C1087.66 -374.965 1087.73 -375.056 1087.73 -375.157L1087.48 -375.157ZM974.961 -375.157L974.784 -374.981C974.855 -374.909 974.963 -374.888 975.056 -374.926C975.15 -374.965 975.211 -375.056 975.211 -375.157L974.961 -375.157ZM862.436 -375.158L862.259 -374.981C862.33 -374.909 862.438 -374.888 862.531 -374.926C862.625 -374.965 862.686 -375.056 862.686 -375.158L862.436 -375.158ZM749.911 -375.158L749.734 -374.981C749.805 -374.909 749.913 -374.888 750.006 -374.926C750.1 -374.965 750.161 -375.056 750.161 -375.158L749.911 -375.158ZM637.396 -375.158L637.219 -374.981C637.291 -374.909 637.398 -374.888 637.492 -374.926C637.585 -374.965 637.646 -375.056 637.646 -375.158L637.396 -375.158ZM524.871 -375.158L524.694 -374.981C524.766 -374.909 524.873 -374.888 524.967 -374.926C525.061 -374.965 525.121 -375.056 525.121 -375.158L524.871 -375.158ZM3.14958 628L3.14958 627.75L2.89958 627.75L2.89958 628L3.14958 628ZM3.14954 1186L2.89954 1186L2.89954 1186.25L3.14954 1186.25L3.14954 1186ZM1200 1186L1200 1186.25L1200.25 1186.25L1200.25 1186L1200 1186ZM402.1 -488L402.1 -488.25L401.85 -488.25L401.85 -488L402.1 -488ZM801.05 1186L800.8 1186L800.8 1186.25L801.05 1186.25L801.05 1186ZM402.1 1186L402.1 1186.25L402.35 1186.25L402.35 1186L402.1 1186ZM202.625 70L202.875 70L202.875 30.3189L202.625 30.3189L202.375 30.3189L202.375 70L202.625 70ZM202.625 30.3189L202.875 30.3189L202.875 -369.757L202.625 -369.757L202.375 -369.757L202.375 30.3189L202.625 30.3189ZM-3.86787e-05 232.115L-3.87005e-05 232.365L202.625 232.365L202.625 232.115L202.625 231.865L-3.86568e-05 231.865L-3.86787e-05 232.115ZM3.14959 626.115L3.32659 626.292L400.398 228.101L400.221 227.925L400.044 227.748L2.97258 625.939L3.14959 626.115ZM400.221 227.925L399.971 227.925L399.971 626.115L400.221 626.115L400.471 626.115L400.471 227.925L400.221 227.925ZM400.221 626.115L400.221 625.865L3.14959 625.865L3.14959 626.115L3.14959 626.365L400.221 626.365L400.221 626.115ZM1200 628L1200.18 627.824L801.227 227.748L801.05 227.925L800.873 228.101L1199.82 628.177L1200 628ZM801.05 227.925L800.8 227.925L800.8 628L801.05 628L801.3 628L801.3 227.925L801.05 227.925ZM801.05 628L801.05 628.25L1200 628.25L1200 628L1200 627.75L801.05 627.75L801.05 628ZM403.685 427.825L403.508 428.002L602.983 628.04L603.16 627.863L603.337 627.687L403.862 427.649L403.685 427.825ZM603.16 627.863L603.337 628.04L802.812 428.002L802.635 427.825L802.458 427.649L602.983 627.687L603.16 627.863ZM802.635 427.825L802.635 427.575L403.685 427.575L403.685 427.825L403.685 428.075L802.635 428.075L802.635 427.825ZM802.635 -369.367L802.635 -369.117L902.373 -369.117L902.373 -369.367L902.373 -369.617L802.635 -369.617L802.635 -369.367ZM802.635 -27.5236L802.385 -27.5236L802.385 70.0001L802.635 70.0001L802.885 70.0001L802.885 -27.5236L802.635 -27.5236ZM902.373 -108.118L902.123 -108.118L902.123 -105.128L902.373 -105.128L902.623 -105.128L902.623 -108.118L902.373 -108.118ZM902.373 70.0001L902.123 70.0001L902.123 329.533L902.373 329.533L902.623 329.533L902.623 70.0001L902.373 70.0001ZM902.688 -369.367L902.688 -369.117L1000.53 -369.117L1000.53 -369.367L1000.53 -369.617L902.688 -369.617L902.688 -369.367ZM1002.43 70.0001L1002.18 70.0001L1002.18 429.868L1002.43 429.868L1002.68 429.868L1002.68 70.0001L1002.43 70.0001ZM902.688 70.0001L902.438 70.0001L902.438 329.849L902.688 329.849L902.938 329.849L902.938 70.0001L902.688 70.0001ZM1000.53 -333.908L1000.78 -333.908L1000.78 -369.367L1000.53 -369.367L1000.28 -369.367L1000.28 -333.908L1000.53 -333.908ZM1100.26 70.0001L1100.01 70.0001L1100.01 527.981L1100.26 527.981L1100.51 527.981L1100.51 70.0001L1100.26 70.0001ZM1000.53 70.0001L1000.28 70.0001L1000.27 427.962L1000.52 427.962L1000.77 427.962L1000.78 70.0001L1000.53 70.0001ZM1200 627.863L1200.25 627.863L1200.25 70.0001L1200 70.0001L1199.75 70.0001L1199.75 627.863L1200 627.863ZM412.357 232.115L412.607 232.115C412.607 124.089 499.933 36.5173 607.654 36.5173L607.654 36.2673L607.654 36.0173C499.655 36.0173 412.107 123.814 412.107 232.115L412.357 232.115ZM607.654 36.2673L607.654 36.5173C715.374 36.5173 802.7 124.089 802.7 232.115L802.95 232.115L803.2 232.115C803.2 123.814 715.652 36.0173 607.654 36.0173L607.654 36.2673ZM802.95 232.115L802.7 232.115C802.7 340.141 715.374 427.712 607.654 427.712L607.654 427.962L607.654 428.212C715.652 428.212 803.2 340.416 803.2 232.115L802.95 232.115ZM607.654 427.962L607.654 427.712C499.933 427.712 412.607 340.141 412.607 232.115L412.357 232.115L412.107 232.115C412.107 340.416 499.655 428.212 607.654 428.212L607.654 427.962ZM202.625 30.3189L202.625 30.5689C423.099 30.5689 601.825 -148.662 601.825 -369.757L601.575 -369.757L601.325 -369.757C601.325 -148.936 422.822 30.0689 202.625 30.0689L202.625 30.3189ZM601.575 -369.757L601.575 -370.007L202.625 -370.007L202.625 -369.757L202.625 -369.507L601.575 -369.507L601.575 -369.757ZM603.16 30.3189L603.16 30.5689C823.635 30.5689 1002.36 -148.662 1002.36 -369.756L1002.11 -369.756L1001.86 -369.756C1001.86 -148.936 823.357 30.0689 603.16 30.0689L603.16 30.3189ZM1002.11 -369.756L1002.11 -370.006L603.16 -370.007L603.16 -369.757L603.16 -369.507L1002.11 -369.506L1002.11 -369.756ZM603.16 -369.757L602.91 -369.757L602.91 30.3189L603.16 30.3189L603.41 30.3189L603.41 -369.757L603.16 -369.757ZM5.02889 225.092L5.27889 225.092L5.27891 28.8344L5.02891 28.8344L4.77891 28.8344L4.77889 225.092L5.02889 225.092ZM5.02891 28.8344L5.02891 29.0844L200.745 29.0844L200.745 28.8344L200.745 28.5844L5.02891 28.5844L5.02891 28.8344ZM200.745 28.8344L200.568 28.6579L4.85189 224.916L5.02889 225.092L5.20589 225.269L200.923 29.0109L200.745 28.8344ZM5.02891 26.0022L5.27891 26.0022L5.27893 -170.266L5.02893 -170.266L4.77893 -170.266L4.77891 26.0022L5.02891 26.0022ZM5.02893 -170.266L5.02893 -170.016L200.745 -170.016L200.745 -170.266L200.745 -170.516L5.02893 -170.516L5.02893 -170.266ZM200.745 -170.266L200.568 -170.443L4.85191 25.8257L5.02891 26.0022L5.20603 26.1787L200.923 -170.09L200.745 -170.266ZM5.02893 -174.036L5.27893 -174.036L5.27894 -370.304L5.02894 -370.304L4.77894 -370.304L4.77893 -174.036L5.02893 -174.036ZM5.02894 -370.304L5.02894 -370.054L200.745 -370.054L200.745 -370.304L200.745 -370.554L5.02894 -370.554L5.02894 -370.304ZM200.745 -370.304L200.568 -370.481L4.85193 -174.212L5.02893 -174.036L5.20605 -173.859L200.923 -370.128L200.745 -370.304ZM1200 -375.157L1200.25 -375.157L1200.25 -488L1200 -488L1199.75 -488L1199.75 -375.157L1200 -375.157ZM1200 -488L1200 -488.25L1087.48 -488.25L1087.48 -488L1087.48 -487.75L1200 -487.75L1200 -488ZM1087.48 -488L1087.3 -487.823L1199.82 -374.981L1200 -375.157L1200.18 -375.334L1087.65 -488.176L1087.48 -488ZM1087.48 -375.157L1087.73 -375.157L1087.73 -488L1087.48 -488L1087.23 -488L1087.23 -375.157L1087.48 -375.157ZM1087.48 -488L1087.48 -488.25L974.961 -488.25L974.961 -488L974.961 -487.75L1087.48 -487.75L1087.48 -488ZM974.961 -488L974.784 -487.823L1087.3 -374.981L1087.48 -375.157L1087.65 -375.334L975.138 -488.176L974.961 -488ZM974.961 -375.157L975.211 -375.157L975.211 -488L974.961 -488L974.711 -488L974.711 -375.157L974.961 -375.157ZM974.961 -488L974.961 -488.25L862.436 -488.25L862.436 -488L862.436 -487.75L974.961 -487.75L974.961 -488ZM862.436 -488L862.259 -487.823L974.784 -374.981L974.961 -375.157L975.138 -375.334L862.613 -488.176L862.436 -488ZM862.436 -375.158L862.686 -375.158L862.686 -488L862.436 -488L862.186 -488L862.186 -375.158L862.436 -375.158ZM862.436 -488L862.436 -488.25L749.911 -488.25L749.911 -488L749.911 -487.75L862.436 -487.75L862.436 -488ZM749.911 -488L749.734 -487.823L862.259 -374.981L862.436 -375.158L862.613 -375.334L750.088 -488.176L749.911 -488ZM749.911 -375.158L750.161 -375.158L750.161 -488L749.911 -488L749.661 -488L749.661 -375.158L749.911 -375.158ZM749.911 -488L749.911 -488.25L637.396 -488.25L637.396 -488L637.396 -487.75L749.911 -487.75L749.911 -488ZM637.396 -488L637.219 -487.823L749.734 -374.981L749.911 -375.158L750.088 -375.334L637.573 -488.176L637.396 -488ZM637.396 -375.158L637.646 -375.158L637.646 -488L637.396 -488L637.146 -488L637.146 -375.158L637.396 -375.158ZM637.396 -488L637.396 -488.25L524.871 -488.25L524.871 -488L524.871 -487.75L637.396 -487.75L637.396 -488ZM524.871 -488L524.694 -487.823L637.219 -374.981L637.396 -375.158L637.573 -375.334L525.049 -488.176L524.871 -488ZM524.871 -375.158L525.121 -375.158L525.121 -488L524.871 -488L524.621 -488L524.621 -375.158L524.871 -375.158ZM524.871 -488L524.871 -488.25L412.357 -488.25L412.357 -488L412.357 -487.75L524.871 -487.75L524.871 -488ZM412.357 -488L412.18 -487.823L524.694 -374.981L524.871 -375.158L525.049 -375.334L412.534 -488.176L412.357 -488ZM202.625 129.243L202.875 129.243C202.875 74.1413 247.417 29.4739 302.362 29.4739L302.362 29.2239L302.362 28.9739C247.14 28.9739 202.375 73.8665 202.375 129.243L202.625 129.243ZM302.362 29.2239L302.362 29.4739C357.307 29.4739 401.85 74.1413 401.85 129.243L402.1 129.243L402.35 129.243C402.35 73.8665 357.585 28.9739 302.362 28.9739L302.362 29.2239ZM402.1 129.243L401.85 129.243C401.85 184.344 357.307 229.012 302.362 229.012L302.362 229.262L302.362 229.512C357.584 229.512 402.35 184.619 402.35 129.243L402.1 129.243ZM302.362 229.262L302.362 229.012C247.417 229.012 202.875 184.344 202.875 129.243L202.625 129.243L202.375 129.243C202.375 184.619 247.14 229.512 302.362 229.512L302.362 229.262ZM3.14958 628L2.89958 628L2.89954 1186L3.14954 1186L3.39954 1186L3.39958 628L3.14958 628ZM3.14954 1186L3.14954 1186.25L1200 1186.25L1200 1186L1200 1185.75L3.14954 1185.75L3.14954 1186ZM1200 1186L1200.25 1186L1200.25 70.0001L1200 70.0001L1199.75 70.0001L1199.75 1186L1200 1186ZM402.1 -488L402.1 -487.75L1200 -487.75L1200 -488L1200 -488.25L402.1 -488.25L402.1 -488ZM1200 -488L1199.75 -488L1199.75 -369.367L1200 -369.367L1200.25 -369.367L1200.25 -488L1200 -488ZM1200 1186L1200 1185.75L801.05 1185.75L801.05 1186L801.05 1186.25L1200 1186.25L1200 1186ZM801.05 1186L801.3 1186L801.3 628L801.05 628L800.8 628L800.8 1186L801.05 1186ZM1200 628L1199.75 628L1199.75 1186L1200 1186L1200.25 1186L1200.25 628L1200 628ZM402.1 1186L402.1 1185.75L3.14954 1185.75L3.14954 1186L3.14954 1186.25L402.1 1186.25L402.1 1186ZM3.14958 628L3.14958 628.25L402.1 628.25L402.1 628L402.1 627.75L3.14958 627.75L3.14958 628ZM402.1 628L401.85 628L401.85 1186L402.1 1186L402.35 1186L402.35 628L402.1 628ZM801.05 628L801.3 628L801.3 70.0001L801.05 70.0001L800.8 70.0001L800.8 628L801.05 628ZM801.05 70.0001L801.05 70.2501L1200 70.2501L1200 70.0001L1200 69.7501L801.05 69.7501L801.05 70.0001ZM1200 70.0001L1199.75 70.0001L1199.75 628L1200 628L1200.25 628L1200.25 70.0001L1200 70.0001ZM402.1 232.115L401.85 232.115L401.85 628L402.1 628L402.35 628L402.35 232.115L402.1 232.115ZM402.1 628L402.1 628.25L404.01 628.25L404.01 628L404.01 627.75L402.1 627.75L402.1 628ZM202.625 70L202.625 70.25L204.21 70.25L204.21 70L204.21 69.75L202.625 69.75L202.625 70ZM1200 -375.157L1199.75 -375.157L1199.75 -369.367L1200 -369.367L1200.25 -369.367L1200.25 -375.157L1200 -375.157ZM1200 70.0001L1200 69.7501L1100.26 69.7501L1100.26 70.0001L1100.26 70.2501L1200 70.2501L1200 70.0001ZM1100.26 70.0001L1100.26 69.7501L1002.43 69.7501L1002.43 70.0001L1002.43 70.2501L1100.26 70.2501L1100.26 70.0001ZM1002.43 70.0001L1002.43 69.7501L1000.53 69.7501L1000.53 70.0001L1000.53 70.2501L1002.43 70.2501L1002.43 70.0001ZM1000.53 70.0001L1000.53 69.7501L902.688 69.7501L902.688 70.0001L902.688 70.2501L1000.53 70.2501L1000.53 70.0001ZM902.688 70.0001L902.688 69.7501L902.373 69.7501L902.373 70.0001L902.373 70.2501L902.688 70.2501L902.688 70.0001ZM902.373 70.0001L902.373 69.7501L802.635 69.7501L802.635 70.0001L802.635 70.2501L902.373 70.2501L902.373 70.0001ZM802.635 70.0001L802.635 69.7501L801.05 69.7501L801.05 70.0001L801.05 70.2501L802.635 70.2501L802.635 70.0001ZM801.05 -26.6287L801.3 -26.6287L801.3 -369.367L801.05 -369.367L800.8 -369.367L800.8 -26.6287L801.05 -26.6287ZM402.1 -488L401.85 -488L401.85 -369.367L402.1 -369.367L402.35 -369.367L402.35 -488L402.1 -488ZM801.05 -26.6287L800.8 -26.6287L800.8 70.0001L801.05 70.0001L801.3 70.0001L801.3 -26.6287L801.05 -26.6287ZM402.1 -369.367L401.85 -369.367L401.85 232.115L402.1 232.115L402.35 232.115L402.35 -369.367L402.1 -369.367ZM402.1 232.115L402.1 231.865L202.625 231.865L202.625 232.115L202.625 232.365L402.1 232.365L402.1 232.115ZM202.625 232.115L202.875 232.115L202.875 70L202.625 70L202.375 70L202.375 232.115L202.625 232.115ZM802.635 70.0001L802.385 70.0001L802.385 427.825L802.635 427.825L802.885 427.825L802.885 70.0001L802.635 70.0001ZM902.688 -105.496L902.938 -105.496L902.938 -369.367L902.688 -369.367L902.438 -369.367L902.438 -105.496L902.688 -105.496ZM1000.53 -369.367L1000.53 -369.117L1200 -369.117L1200 -369.367L1200 -369.617L1000.53 -369.617L1000.53 -369.367ZM1000.52 627.863L1000.52 628.113L1200 628.113L1200 627.863L1200 627.613L1000.52 627.613L1000.52 627.863ZM801.05 227.925L801.3 227.925L801.3 70.0001L801.05 70.0001L800.8 70.0001L800.8 227.925L801.05 227.925ZM412.357 -488L412.357 -488.25L402.1 -488.25L402.1 -488L402.1 -487.75L412.357 -487.75L412.357 -488Z" fill="white"/>
</svg>
