<svg width="18" height="18" viewBox="0 0 18 18" fill="none" xmlns="http://www.w3.org/2000/svg">
<path d="M17.2375 13.0985V15.5985C17.2384 15.8305 17.1909 16.0603 17.0979 16.2729C17.0049 16.4856 16.8686 16.6764 16.6976 16.8333C16.5265 16.9902 16.3246 17.1097 16.1048 17.184C15.8849 17.2584 15.652 17.286 15.4208 17.2651C12.8565 16.9865 10.3933 16.1102 8.22916 14.7068C6.21568 13.4273 4.50861 11.7203 3.22916 9.70679C1.82081 7.53279 0.944362 5.05762 0.670826 2.48179C0.650002 2.25134 0.677389 2.01909 0.751243 1.79981C0.825098 1.58053 0.943802 1.37903 1.0998 1.20814C1.25579 1.03725 1.44566 0.900711 1.65732 0.807221C1.86897 0.713732 2.09778 0.665338 2.32916 0.66512H4.82916C5.23358 0.661139 5.62565 0.804352 5.93229 1.06806C6.23894 1.33178 6.43922 1.69799 6.49583 2.09845C6.60135 2.89851 6.79703 3.68406 7.07916 4.44012C7.19128 4.73839 7.21554 5.06255 7.14908 5.37419C7.08262 5.68582 6.92821 5.97188 6.70416 6.19845L5.64583 7.25679C6.83212 9.34307 8.55954 11.0705 10.6458 12.2568L11.7042 11.1985C11.9307 10.9744 12.2168 10.82 12.5284 10.7535C12.8401 10.6871 13.1642 10.7113 13.4625 10.8235C14.2186 11.1056 15.0041 11.3013 15.8042 11.4068C16.209 11.4639 16.5787 11.6678 16.8429 11.9797C17.1072 12.2916 17.2476 12.6898 17.2375 13.0985Z" stroke="white" stroke-width="1.33" stroke-linecap="round" stroke-linejoin="round"/>
</svg>
