<svg width="32" height="32" viewBox="0 0 32 32" fill="none" xmlns="http://www.w3.org/2000/svg">
<rect width="32" height="32" rx="6" fill="#F2F5F9"/>
<path d="M18.0493 6C20.0876 6.21477 21.9915 7.1188 23.4462 8.56258C24.9009 10.0064 25.8192 11.9034 26.0493 13.94M18.0493 10C19.0328 10.1939 19.9353 10.679 20.6397 11.3923C21.3441 12.1056 21.8178 13.0141 21.9993 14M25.9994 20.9201V23.9201C26.0006 24.1986 25.9435 24.4743 25.832 24.7294C25.7204 24.9846 25.5567 25.2137 25.3515 25.402C25.1463 25.5902 24.904 25.7336 24.6402 25.8228C24.3764 25.912 24.0968 25.9452 23.8194 25.9201C20.7423 25.5857 17.7864 24.5342 15.1894 22.8501C12.7733 21.3148 10.7248 19.2663 9.18945 16.8501C7.49942 14.2413 6.44769 11.2711 6.11944 8.1801C6.09446 7.90356 6.12732 7.62486 6.21595 7.36172C6.30457 7.09859 6.44702 6.85679 6.63421 6.65172C6.82141 6.44665 7.04925 6.28281 7.30324 6.17062C7.55722 6.05843 7.83179 6.00036 8.10945 6.0001H11.1094C11.5948 5.99532 12.0652 6.16718 12.4332 6.48363C12.8012 6.80008 13.0415 7.23954 13.1094 7.7201C13.2361 8.68016 13.4709 9.62282 13.8094 10.5301C13.944 10.888 13.9731 11.277 13.8934 11.651C13.8136 12.0249 13.6283 12.3682 13.3594 12.6401L12.0894 13.9101C13.513 16.4136 15.5859 18.4865 18.0894 19.9101L19.3594 18.6401C19.6313 18.3712 19.9746 18.1859 20.3486 18.1062C20.7225 18.0264 21.1115 18.0556 21.4694 18.1901C22.3767 18.5286 23.3194 18.7635 24.2794 18.8901C24.7652 18.9586 25.2088 19.2033 25.526 19.5776C25.8431 19.9519 26.0116 20.4297 25.9994 20.9201Z" stroke="#282E38" stroke-width="1.33" stroke-linecap="round" stroke-linejoin="round"/>
</svg>
