<svg width="35" height="32" viewBox="0 0 35 32" fill="none" xmlns="http://www.w3.org/2000/svg">
<path d="M7.32025 17.4501H1.28204L1.11328 18.4171H7.1513L7.32025 17.4501ZM25.2088 13.5832H29.1826L28.0017 20.3509C27.8102 21.4489 26.7739 22.3391 25.6874 22.3391H10.5833C9.49674 22.3391 8.77129 21.4489 8.96277 20.3509H6.24599L6.41475 19.384H11.4031L11.5719 18.4171H8.01237L8.18117 17.4501H10.4194L10.5882 16.4832H6.79606L6.96481 15.5164H13.2469L13.4156 14.5495H5.90953L6.07829 13.5825L25.2088 13.5832ZM13.9932 16.4832H11.8557L11.687 17.4501H13.8245L13.9932 16.4832ZM6.4379 15.5164H5.04323L4.87448 16.4832H6.26915L6.4379 15.5164ZM6.4379 15.5164H5.04323L4.87448 16.4832H6.26915L6.4379 15.5164ZM5.7802 19.384H4.81795L4.64919 20.3509H5.61144L5.7802 19.384ZM4.3388 15.5164H3.33755L3.16879 16.4832H4.17005L4.3388 15.5164Z" fill="#2360DA"/>
<path d="M8.08842 12.6162H5.54688L5.71563 11.6493H8.25715L8.08842 12.6162ZM27.8971 9.66113H12.7931C11.7065 9.66113 10.6704 10.5513 10.4787 11.6493H8.93134L8.76261 12.6162H29.349L29.5177 11.6493C29.7094 10.5513 28.9836 9.66113 27.8971 9.66113Z" fill="#0088FF"/>
</svg>
