<svg width="18" height="18" viewBox="0 0 18 18" fill="none" xmlns="http://www.w3.org/2000/svg">
<circle cx="9" cy="9" r="9" fill="#F2F6F9"/>
<path d="M5.61684 12.8832C5.46113 12.7275 5.46113 12.4751 5.61684 12.3193L11.8194 6.11679C11.9751 5.96108 12.2275 5.96108 12.3832 6.11679C12.5389 6.2725 12.5389 6.52495 12.3832 6.68066L6.18071 12.8832C6.025 13.0389 5.77255 13.0389 5.61684 12.8832Z" fill="#0E2857"/>
<path d="M5.61678 6.11678C5.77249 5.96107 6.02494 5.96107 6.18065 6.11678L12.3832 12.3193C12.5389 12.4751 12.5389 12.7275 12.3832 12.8832C12.2275 13.0389 11.975 13.0389 11.8193 12.8832L5.61678 6.68065C5.46107 6.52494 5.46107 6.27249 5.61678 6.11678Z" fill="#0E2857"/>
</svg>
