<svg width="32" height="32" viewBox="0 0 32 32" fill="none" xmlns="http://www.w3.org/2000/svg">
<rect width="32" height="32" rx="16" fill="#50AF95"/>
<g clip-path="url(#clip0_8125_8067)">
<path fill-rule="evenodd" clip-rule="evenodd" d="M7.62198 4.61296L2.80107 14.7393C2.78272 14.777 2.77691 14.8195 2.78448 14.8607C2.79205 14.9019 2.8126 14.9396 2.84313 14.9683L15.8633 27.4447C15.9003 27.4802 15.9495 27.5 16.0008 27.5C16.052 27.5 16.1013 27.4802 16.1382 27.4447L29.1584 14.9691C29.1889 14.9404 29.2094 14.9027 29.217 14.8615C29.2246 14.8203 29.2188 14.7777 29.2004 14.7401L24.3795 4.61374C24.364 4.57973 24.3389 4.55092 24.3074 4.53076C24.2759 4.51059 24.2393 4.49992 24.2019 4.50002H7.80114C7.76356 4.49955 7.72665 4.50996 7.69486 4.53C7.66308 4.55005 7.63776 4.57886 7.62198 4.61296Z" fill="#50AF95"/>
<path fill-rule="evenodd" clip-rule="evenodd" d="M17.6723 15.7783C17.5788 15.7853 17.0959 15.8141 16.0186 15.8141C15.1617 15.8141 14.5534 15.7884 14.3399 15.7783C11.0287 15.6326 8.55707 15.0562 8.55707 14.366C8.55707 13.6759 11.0287 13.1003 14.3399 12.9523V15.2042C14.5565 15.2197 15.1765 15.2564 16.0334 15.2564C17.0616 15.2564 17.5765 15.2135 17.6692 15.2049V12.9538C20.9735 13.101 23.4396 13.6775 23.4396 14.366C23.4396 15.0546 20.9742 15.631 17.6692 15.7775L17.6723 15.7783ZM17.6723 12.7209V10.7058H22.2837V7.63281H9.7286V10.7058H14.3392V12.7201C10.5917 12.8923 7.77344 13.6346 7.77344 14.5241C7.77344 15.4137 10.5917 16.1553 14.3392 16.3282V22.7857H17.6715V16.3259C21.4105 16.1537 24.224 15.4121 24.224 14.5234C24.224 13.6346 21.4128 12.8931 17.6715 12.7201L17.6723 12.7209Z" fill="white"/>
</g>
<defs>
<clipPath id="clip0_8125_8067">
<rect width="28" height="23" fill="white" transform="translate(2 4.5)"/>
</clipPath>
</defs>
</svg>
