<svg width="32" height="32" viewBox="0 0 32 32" fill="none" xmlns="http://www.w3.org/2000/svg">
<g clip-path="url(#clip0_8125_11965)">
<path d="M16 31.3599C24.5896 31.3599 31.5 24.5119 31.5 15.9999C31.5 7.48784 24.5896 0.639893 16 0.639893C7.41036 0.639893 0.5 7.48784 0.5 15.9999C0.5 24.5119 7.41036 31.3599 16 31.3599Z" fill="#2775CA"/>
<path d="M20.2635 18.4313C20.2635 16.1913 18.9073 15.4233 16.1948 15.1034C14.2573 14.8473 13.8698 14.3354 13.8698 13.4393C13.8698 12.5432 14.5156 11.9673 15.8073 11.9673C16.9698 11.9673 17.6156 12.3513 17.9385 13.3113C18.0031 13.5033 18.1969 13.6313 18.3906 13.6313H19.4238C19.6823 13.6313 19.876 13.4393 19.876 13.1834V13.1193C19.6176 11.7113 18.4551 10.6233 16.9698 10.4954V8.95937C16.9698 8.70332 16.776 8.51132 16.4531 8.44727H15.4844C15.226 8.44727 15.0323 8.63927 14.9676 8.95937V10.4313C13.0301 10.6874 11.8031 11.9673 11.8031 13.5674C11.8031 15.6794 13.0947 16.5113 15.8073 16.8314C17.6156 17.1514 18.1969 17.5354 18.1969 18.5594C18.1969 19.5834 17.2926 20.2874 16.0656 20.2874C14.3863 20.2874 13.8051 19.5833 13.6113 18.6233C13.5469 18.3674 13.3531 18.2393 13.1594 18.2393H12.0614C11.8031 18.2393 11.6094 18.4313 11.6094 18.6874V18.7514C11.8676 20.3513 12.901 21.5033 15.0323 21.8234V23.3594C15.0323 23.6153 15.226 23.8073 15.5488 23.8713H16.5176C16.776 23.8713 16.9698 23.6794 17.0344 23.3594V21.8234C18.9719 21.5033 20.2635 20.1593 20.2635 18.4313Z" fill="white"/>
<path d="M12.7065 25.152C7.66903 23.3601 5.08565 17.7921 6.95867 12.864C7.92742 10.176 10.0587 8.12807 12.7065 7.16807C12.9649 7.04012 13.094 6.84812 13.094 6.52801V5.63207C13.094 5.37601 12.9649 5.18401 12.7065 5.12012C12.6419 5.12012 12.5128 5.12012 12.4481 5.18401C6.31278 7.10401 2.9544 13.5681 4.8919 19.6481C6.0544 23.232 8.83153 25.9841 12.4481 27.1361C12.7065 27.264 12.9649 27.1361 13.0294 26.88C13.094 26.8161 13.094 26.7521 13.094 26.6241V25.728C13.094 25.536 12.9003 25.2801 12.7065 25.152ZM19.5524 5.18401C19.294 5.05607 19.0357 5.18401 18.9711 5.44007C18.9065 5.50412 18.9065 5.56801 18.9065 5.69612V6.59207C18.9065 6.84812 19.1003 7.10401 19.294 7.23212C24.3315 9.02401 26.9149 14.592 25.042 19.5201C24.0732 22.2081 21.9419 24.2561 19.294 25.2161C19.0357 25.344 18.9065 25.536 18.9065 25.8561V26.7521C18.9065 27.0081 19.0357 27.2001 19.294 27.264C19.3586 27.264 19.4878 27.264 19.5524 27.2001C25.6878 25.2801 29.0461 18.816 27.1086 12.7361C25.9461 9.08807 23.1045 6.33601 19.5524 5.18401Z" fill="white"/>
</g>
<defs>
<clipPath id="clip0_8125_11965">
<rect width="31" height="32" fill="white" transform="translate(0.5)"/>
</clipPath>
</defs>
</svg>
