<svg width="22" height="22" viewBox="0 0 22 22" fill="none" xmlns="http://www.w3.org/2000/svg">
<path d="M20.5532 15.5851V18.5851C20.5543 18.8636 20.4972 19.1393 20.3857 19.3945C20.2741 19.6497 20.1105 19.8787 19.9052 20.067C19.7 20.2553 19.4577 20.3986 19.1939 20.4878C18.9301 20.5771 18.6505 20.6102 18.3732 20.5851C15.296 20.2508 12.3402 19.1993 9.74316 17.5151C7.32698 15.9798 5.27849 13.9313 3.74316 11.5151C2.05313 8.90634 1.0014 5.93613 0.673156 2.84514C0.648166 2.5686 0.681031 2.2899 0.769656 2.02676C0.858282 1.76362 1.00073 1.52183 1.18792 1.31676C1.37512 1.11169 1.60296 0.947845 1.85695 0.835658C2.11093 0.723471 2.3855 0.665397 2.66316 0.665136H5.66316C6.14846 0.66036 6.61895 0.832215 6.98692 1.14867C7.35489 1.46512 7.59523 1.90458 7.66316 2.38514C7.78978 3.3452 8.02461 4.28786 8.36316 5.19514C8.4977 5.55306 8.52682 5.94205 8.44706 6.31602C8.36731 6.68998 8.18202 7.03325 7.91316 7.30514L6.64316 8.57514C8.06671 11.0787 10.1396 13.1516 12.6432 14.5751L13.9132 13.3051C14.185 13.0363 14.5283 12.851 14.9023 12.7712C15.2762 12.6915 15.6652 12.7206 16.0232 12.8551C16.9304 13.1937 17.8731 13.4285 18.8332 13.5551C19.3189 13.6237 19.7626 13.8683 20.0797 14.2426C20.3968 14.6169 20.5653 15.0947 20.5532 15.5851Z" stroke="white" stroke-width="1.33" stroke-linecap="round" stroke-linejoin="round"/>
</svg>
