<svg width="18" height="18" viewBox="0 0 18 18" fill="none" xmlns="http://www.w3.org/2000/svg">
<path d="M17.2385 13.0985V15.5985C17.2394 15.8305 17.1919 16.0603 17.0989 16.2729C17.0059 16.4856 16.8696 16.6764 16.6985 16.8333C16.5275 16.9902 16.3256 17.1097 16.1058 17.184C15.8859 17.2584 15.6529 17.286 15.4218 17.2651C12.8575 16.9865 10.3943 16.1102 8.23014 14.7068C6.21666 13.4273 4.50958 11.7203 3.23014 9.70679C1.82178 7.53279 0.945339 5.05762 0.671803 2.48179C0.650978 2.25134 0.678365 2.01909 0.75222 1.79981C0.826075 1.58053 0.944779 1.37903 1.10077 1.20814C1.25677 1.03725 1.44664 0.900711 1.6583 0.807221C1.86995 0.713732 2.09875 0.665338 2.33014 0.66512H4.83014C5.23456 0.661139 5.62663 0.804352 5.93327 1.06806C6.23991 1.33178 6.4402 1.69799 6.4968 2.09845C6.60232 2.89851 6.79801 3.68406 7.08014 4.44012C7.19226 4.73839 7.21652 5.06255 7.15006 5.37419C7.0836 5.68582 6.92919 5.97188 6.70514 6.19845L5.6468 7.25679C6.8331 9.34307 8.56051 11.0705 10.6468 12.2568L11.7051 11.1985C11.9317 10.9744 12.2178 10.82 12.5294 10.7535C12.841 10.6871 13.1652 10.7113 13.4635 10.8235C14.2195 11.1056 15.0051 11.3013 15.8051 11.4068C16.2099 11.4639 16.5796 11.6678 16.8439 11.9797C17.1082 12.2916 17.2486 12.6898 17.2385 13.0985Z" stroke="white" stroke-width="1.33" stroke-linecap="round" stroke-linejoin="round"/>
</svg>
